<?xml version="1.0" encoding="UTF-8" standalone="no"?>
<!DOCTYPE svg PUBLIC "-//W3C//DTD SVG 1.1//EN" "http://www.w3.org/Graphics/SVG/1.1/DTD/svg11.dtd">
<svg width="100%" height="100%" viewBox="0 0 520 520" version="1.1" xmlns="http://www.w3.org/2000/svg" xmlns:xlink="http://www.w3.org/1999/xlink" xml:space="preserve" xmlns:serif="http://www.serif.com/" style="fill-rule:evenodd;clip-rule:evenodd;stroke-linejoin:round;stroke-miterlimit:2;">
    <g id="Fondo" transform="matrix(1,0,0,1,54,31)">
        <path d="M199.427,454.981C186.787,453.496 186.631,453.114 141.732,427.108C99.934,402.899 100.027,402.793 96.337,400.791C95.239,400.195 92.666,398.799 82.752,393.086C25.778,360.255 25.68,360.385 21.533,356.463C6.023,341.796 2.255,329.001 2.254,310.5C2.251,136.436 2.018,136.289 4.158,129.396C10.862,107.804 20.196,100.966 37.734,90.901C125.324,40.636 125.078,40.232 132.757,35.974C184.709,7.168 198.892,-10.26 239.247,12.919C243.601,15.42 289.894,42.01 293.58,44.355C293.684,44.421 356.212,80.474 357.593,81.333C376.782,93.272 394.653,97.897 404.987,121.284C410.481,133.716 409.79,134.23 409.79,225.5C409.79,322.377 410.343,322.739 405.876,334.641C398.302,354.819 385.705,360.652 355.263,378.092C298.017,410.887 298.235,411.212 293.225,414.002C233.367,447.345 223.919,458.486 199.427,454.981Z" style="fill:rgb(216,42,32);fill-opacity:1;"/>
        <path d="M204.489,310.953C215.476,310.533 218.24,305.451 268.277,279.081C310.31,256.929 311.849,254.769 314.347,251.262C316.334,248.472 315.856,253.222 315.855,273.5C315.854,286.739 298.218,288.186 219.249,334.078C202.036,344.082 200.421,338.328 160.667,318.174C101.583,288.22 101.297,287.848 97.792,283.287C96.015,280.974 96.781,277.9 96.253,256.454C96.203,254.412 97.415,254.658 98.737,256.199C104.605,263.042 132.246,274.871 191.755,307.021C198.547,310.69 200.645,310.664 204.489,310.953Z" style="fill:rgb(254,254,254);"/>
        <path d="M97.337,162.867C101.82,167.558 101.51,168.157 161.577,199.353C200.924,219.789 202.327,223.183 216.252,216.011C222.461,212.813 222.18,212.318 292.75,173.957C294.347,173.088 309.419,164.896 312.155,162.117C314.371,159.868 314.253,159.034 315.409,159.654C316.105,160.027 315.881,164.531 315.806,175.503C315.73,186.653 316.415,188.482 303.244,196.054C301.515,197.048 214.489,244.791 211.576,245.714C200.143,249.339 199.702,246.237 137.255,213.975C105.183,197.406 96.462,193.806 96.352,188.507C96.311,186.498 95.848,164.097 96.38,163.395C96.6,163.104 97.117,163.158 97.337,162.867Z" style="fill:rgb(254,254,254);"/>
        <path d="M97.344,209.802C103.101,216.233 103.359,216.212 191.683,262.15C209.355,271.342 210.494,264.959 246.285,246.1C305.368,214.97 309.307,211.185 313.813,206.856C315.957,204.795 315.421,208.155 315.419,228.5C315.417,238.053 307.202,239.912 280.654,254.785C250.568,271.641 250.184,270.824 220.23,288.031C202.028,298.487 200.171,293.361 160.348,272.793C157.011,271.069 120.113,252.012 118.64,251.233C102.339,242.607 96.243,240.213 96.199,233.5C96.062,212.409 95.834,212.426 95.937,210.597C95.945,210.468 96.042,210.538 97.344,209.802Z" style="fill:rgb(254,254,254);"/>
        <path d="M170.447,172.056C167.378,172.273 134.039,174.624 134.102,159.498C134.182,140.418 195.796,143.87 187.632,162.562C184.894,168.831 171.98,171.714 170.447,172.056Z" style="fill:rgb(254,254,254);"/>
        <path d="M286.093,156.92C286.148,158.668 285.549,158.508 275.481,163.462C255.402,173.343 255.012,174.497 250.584,172.331C226.107,160.357 224.194,160.38 225.525,158.518C225.795,158.14 249.89,146.387 255.614,143.772C258.54,142.435 261.503,145.639 286.093,156.92Z" style="fill:white;"/>
        <path d="M194.419,179.026C221.258,173.847 221.155,173.414 223.519,173.184C223.796,173.157 225.784,172.963 223.806,176.658C211.965,198.779 212.052,198.925 210.291,200.195C208.485,201.497 184.242,187.41 178.382,184.696C172.796,182.11 179.755,181.721 194.419,179.026Z" style="fill:rgb(254,254,254);"/>
        <path d="M210.786,153.205C206.066,142.101 206.58,140.276 198.538,139.245C189.29,138.06 178.778,138.772 187.402,135.301C190.319,134.127 198.956,131.443 198.027,128.618C197.126,125.878 192.834,118.206 196.366,119.915C197.263,120.349 197.177,120.429 207.437,125.626C211.756,127.813 224.705,117.88 223.452,122.496C221.418,129.996 218.914,131.146 222.708,133.117C231.966,137.927 236.364,139.054 232.497,139.495C226.688,140.156 216.426,140.188 215.297,143.421C212.273,152.085 213.065,153.192 210.786,153.205Z" style="fill:rgb(254,254,254);"/>
    </g>
</svg>
